# xmcd
#
# Track frame offsets:
#	150
#	11021
#	24447
#	40783
#	57242
#	77740
#	91352
#	103260
#	117715
#	133114
#	147237
#	164426
#	179121
#	192885
#	206933
#	221366
#	237262
#	251429
#	267419
#	278808
#	297989
#	311543
#	327513
#	342994
#
# Disc length: 4781 seconds
#
# Revision: 2
# Processed by: cddbd v1.5.2PL0 Copyright (c) Steve Scherf et al.
# Submitted via: audiograbber 1.83.01
#
DISCID=7812ab18
DTITLE=Kris Kristofferson - For The Good Times - Best (Zounds)
DYEAR=2010
DGENRE=Country Rock
TTITLE0=Help Me Make It Through The Night [album version]
TTITLE1=Billy Dee [album version]
TTITLE2=Casey's Last Ride [album version]
TTITLE3=Just The Other Side Of Nowhere [album version]
TTITLE4=Sunday Mornin' Comin' Down [album version]
TTITLE5=Best Of All Possible Worlds [album version]
TTITLE6=Come Sundown
TTITLE7=The Pilgrim - Chapter 33 [album version]
TTITLE8=For The Good Times [album version]
TTITLE9=Dakota (The Dancing Bear) [album version]
TTITLE10=Loving Her Was Easier (Than Anything I'll Ever Do Again) [album versio
TTITLE10=n]
TTITLE11=The Taker [album version]
TTITLE12=When I Loved Her [album version]
TTITLE13=Jody And The Kid [album version]
TTITLE14=I'd Rather Be Sorry [Duet with Rita Coolidge]
TTITLE15=If You Don't Like Hank Williams [album version]
TTITLE16=Nobody Wins [album version]
TTITLE17=I'll Take Any Chance I Can With You
TTITLE18=Late John Garfield Blues (live)
TTITLE19=Me And Bobby McGee [album version]
TTITLE20=Hellacious Acres (live) [album version]
TTITLE21=I've Got To Have You [album version]
TTITLE22=Epitaph (Black And Blue) [album version]
TTITLE23=Why Me [album version]
EXTD=
EXTT0=
EXTT1=
EXTT2=
EXTT3=
EXTT4=
EXTT5=
EXTT6=
EXTT7=
EXTT8=
EXTT9=
EXTT10=
EXTT11=
EXTT12=
EXTT13=
EXTT14=
EXTT15=
EXTT16=
EXTT17=
EXTT18=
EXTT19=
EXTT20=
EXTT21=
EXTT22=
EXTT23=
PLAYORDER=
